HIERARCHY
ROOT joint_Root
{
  OFFSET 0 0 0
  CHANNELS 6 Xposition Yposition Zposition Zrotation Xrotation Yrotation
  JOINT Hips
  {
    OFFSET 0 93.9241 -3
    CHANNELS 6 Xposition Yposition Zposition Zrotation Xrotation Yrotation
    JOINT Spine
    {
      OFFSET 15.7357 0 0
      CHANNELS 6 Xposition Yposition Zposition Zrotation Xrotation Yrotation
      JOINT Chest
      {
        OFFSET 8.98455 -0.406207 0
        CHANNELS 6 Xposition Yposition Zposition Zrotation Xrotation Yrotation
        JOINT Neck
        {
          OFFSET 16.3773 0 0
          CHANNELS 6 Xposition Yposition Zposition Zrotation Xrotation Yrotation
          JOINT Head
          {
            OFFSET 6.45672 0 0
            CHANNELS 6 Xposition Yposition Zposition Zrotation Xrotation Yrotation
            End Site
            {
              OFFSET 0 0 0
            }
          }
        }
        JOINT Shoulder_L
        {
          OFFSET 12.9942 -0.242716 4.98039
          CHANNELS 6 Xposition Yposition Zposition Zrotation Xrotation Yrotation
          JOINT UpperArm_L
          {
            OFFSET 5.34809 0 0
            CHANNELS 6 Xposition Yposition Zposition Zrotation Xrotation Yrotation
            JOINT LowerArm_L
            {
              OFFSET 24.3286 1.87007e-05 0
              CHANNELS 6 Xposition Yposition Zposition Zrotation Xrotation Yrotation
              JOINT Hand_L
              {
                OFFSET 22.2916 0 0
                CHANNELS 6 Xposition Yposition Zposition Zrotation Xrotation Yrotation
                End Site
                {
                  OFFSET 0 0 0
                }
              }
            }
          }
        }
        JOINT Shoulder_R
        {
          OFFSET 12.9945 -0.242716 -4.98039
          CHANNELS 6 Xposition Yposition Zposition Zrotation Xrotation Yrotation
          JOINT UpperArm_R
          {
            OFFSET -5.34813 0 0
            CHANNELS 6 Xposition Yposition Zposition Zrotation Xrotation Yrotation
            JOINT LowerArm_R
            {
              OFFSET -24.3289 0.000322201 0
              CHANNELS 6 Xposition Yposition Zposition Zrotation Xrotation Yrotation
              JOINT Hand_R
              {
                OFFSET -22.2915 -0.000108084 0
                CHANNELS 6 Xposition Yposition Zposition Zrotation Xrotation Yrotation
                End Site
                {
                  OFFSET 0 0 0
                }
              }
            }
          }
        }
      }
    }
    JOINT UpperLeg_L
    {
      OFFSET -2.19248 -6.46944 0
      CHANNELS 6 Xposition Yposition Zposition Zrotation Xrotation Yrotation
      JOINT LowerLeg_L
      {
        OFFSET 39.0811 0 -1.23785e-05
        CHANNELS 6 Xposition Yposition Zposition Zrotation Xrotation Yrotation
        JOINT Foot_L
        {
          OFFSET 40.9854 0 -1.26872e-05
          CHANNELS 6 Xposition Yposition Zposition Zrotation Xrotation Yrotation
          JOINT Toes_L
          {
            OFFSET 11.7543 0 0
            CHANNELS 6 Xposition Yposition Zposition Zrotation Xrotation Yrotation
            End Site
            {
              OFFSET 0 0 0
            }
          }
        }
      }
    }
    JOINT UpperLeg_R
    {
      OFFSET -2.19251 6.46944 0
      CHANNELS 6 Xposition Yposition Zposition Zrotation Xrotation Yrotation
      JOINT LowerLeg_R
      {
        OFFSET -39.0811 -0.00228153 -0.0401928
        CHANNELS 6 Xposition Yposition Zposition Zrotation Xrotation Yrotation
        JOINT Foot_R
        {
          OFFSET -40.9854 0 0
          CHANNELS 6 Xposition Yposition Zposition Zrotation Xrotation Yrotation
          JOINT Toes_R
          {
            OFFSET -11.7543 0 0
            CHANNELS 6 Xposition Yposition Zposition Zrotation Xrotation Yrotation
            End Site
            {
              OFFSET 0 0 0
            }
          }
        }
      }
    }
  }
}
MOTION
Frames:	9
Frame Time:	0.0333333
0 0 0 0 0 -0 -4.59851 88.8026 -6.26805 74.9733 -49.0641 -4.0053 15.7357 5.1072e-06 -5.51765e-07 157.083 84.0862 -157.451 8.98455 -0.406207 -4.3199e-07 -3.15161 10.9241 -0.436 16.3773 -1.3905e-06 -6.99897e-07 0.196994 1.90734 13.2559 6.45672 -1.25837e-06 -1.02172e-07 11.084 -0.186668 20.9081 12.9942 -0.242716 4.98039 -89.4985 -1.73743 -88.8968 5.34809 -7.22636e-06 -6.2814e-07 -47.1815 -46.6637 19.9024 24.3286 1.87007e-05 4.90208e-06 14.7937 25.8086 -31.2409 22.2916 -9.88446e-07 4.63217e-06 45.9793 5.2006 2.7039 12.9945 -0.242716 -4.98039 89.9679 6.49377 -104.716 -5.34813 -1.25947e-06 -3.79883e-06 -60.7828 -13.6005 -8.09829 -24.3289 0.000322201 -8.65921e-06 -8.93269 5.31025 -120.491 -22.2915 -0.000108084 -4.47941e-06 70.9401 5.39042 -2.629 -2.19248 -6.46944 -1.22534e-07 -169.773 14.707 -12.2004 39.0811 -6.73843e-06 -1.23785e-05 -0.161706 0.131638 50.7607 40.9854 -6.48686e-06 -1.26872e-05 -9.97084 -26.2591 -70.4968 11.7543 -2.30145e-07 3.05095e-06 -1.64645 -2.56947 -23.6624 -2.19251 6.46944 -1.45247e-06 -161.681 14.8686 177.887 -39.0811 -0.00228153 -0.0401928 0.236481 -0.383598 27.5296 -40.9854 7.72618e-06 5.99936e-06 6.68417 -12.58 -70.8781 -11.7543 -5.6619e-06 -5.58687e-06 -0.115877 0.0752614 -16.573 
0 0 0 0 0 -0 -4.61537 88.8051 -6.29662 74.9555 -49.1448 -4.03548 15.7357 5.1072e-06 -5.51765e-07 157.013 84.0848 -157.357 8.98455 -0.406207 -4.3199e-07 -3.13939 10.9189 -0.389737 16.3773 -1.3905e-06 -6.99897e-07 0.21782 1.93916 13.2737 6.45672 -1.25837e-06 -1.02172e-07 11.0474 -0.129872 20.9421 12.9942 -0.242716 4.98039 -89.5024 -1.72422 -88.8987 5.34809 -7.22636e-06 -6.2814e-07 -47.1653 -46.6492 19.9737 24.3286 1.87007e-05 4.90208e-06 14.7443 25.7383 -31.2167 22.2916 -9.88446e-07 4.63217e-06 45.9126 5.20202 2.66818 12.9945 -0.242716 -4.98039 89.9661 6.51828 -104.701 -5.34813 -1.25947e-06 -3.79883e-06 -60.6303 -12.8038 -8.17573 -24.3289 0.000322201 -8.65921e-06 -2.33283 1.42543 -121.413 -22.2915 -0.000108084 -4.47941e-06 70.9225 5.4439 -4.42338 -2.19248 -6.46944 -1.22534e-07 -169.764 14.69 -12.195 39.0811 -6.73843e-06 -1.23785e-05 -0.162024 0.131888 50.7592 40.9854 -6.48686e-06 -1.26872e-05 -9.96305 -26.3055 -70.5075 11.7543 -2.30145e-07 3.05095e-06 -1.62417 -2.54051 -23.5862 -2.19251 6.46944 -1.45247e-06 -161.665 14.8361 177.906 -39.0811 -0.00228153 -0.0401928 0.238859 -0.389 27.4915 -40.9854 7.72618e-06 5.99936e-06 6.73873 -12.4871 -70.8553 -11.7543 -5.6619e-06 -5.58687e-06 -0.119146 0.0775545 -16.5729 
0 0 0 0 0 -0 -4.63079 88.8053 -6.32845 74.9455 -49.2559 -4.10336 15.7357 5.1072e-06 -5.51765e-07 157.04 84.0724 -157.368 8.98455 -0.406207 -4.3199e-07 -3.13641 10.9423 -0.356223 16.3773 -1.3905e-06 -6.99897e-07 0.198834 1.9336 13.2994 6.45672 -1.25837e-06 -1.02172e-07 11.031 -0.0725449 20.9541 12.9942 -0.242716 4.98039 -89.5023 -1.72352 -88.8888 5.34809 -7.22636e-06 -6.2814e-07 -47.193 -46.6752 19.9924 24.3286 1.87007e-05 4.90208e-06 14.7956 25.8475 -31.2088 22.2916 -9.88446e-07 4.63217e-06 45.7675 5.19782 2.77377 12.9945 -0.242716 -4.98039 89.9553 6.52887 -104.607 -5.34813 -1.25947e-06 -3.79883e-06 -60.4768 -12.0365 -8.40277 -24.3289 0.000322201 -8.65921e-06 4.29318 -2.68176 -121.931 -22.2915 -0.000108084 -4.47941e-06 70.5229 5.4902 -6.14466 -2.19248 -6.46944 -1.22534e-07 -169.765 14.6481 -12.2373 39.0811 -6.73843e-06 -1.23785e-05 -0.163768 0.133171 50.777 40.9854 -6.48686e-06 -1.26872e-05 -9.87217 -26.4033 -70.4764 11.7543 -2.30145e-07 3.05095e-06 -1.58651 -2.5 -23.5309 -2.19251 6.46944 -1.45247e-06 -161.737 15.1953 177.895 -39.0811 -0.00228153 -0.0401928 0.238312 -0.38821 27.4777 -40.9854 7.72618e-06 5.99936e-06 6.85391 -12.0668 -70.8936 -11.7543 -5.6619e-06 -5.58687e-06 -0.123387 0.0803925 -16.5728 
0 0 0 0 0 -0 -4.64259 88.7961 -6.3628 74.9098 -49.4019 -4.17216 15.7357 5.1072e-06 -5.51765e-07 157.006 84.0545 -157.313 8.98455 -0.406207 -4.3199e-07 -3.11775 10.9705 -0.316136 16.3773 -1.3905e-06 -6.99897e-07 0.173666 1.94538 13.364 6.45672 -1.25837e-06 -1.02172e-07 10.9923 -0.0603867 20.9358 12.9942 -0.242716 4.98039 -89.5012 -1.72762 -88.8927 5.34809 -7.22636e-06 -6.2814e-07 -47.2144 -46.668 20.0753 24.3286 1.87007e-05 4.90208e-06 14.7388 25.7703 -31.1773 22.2916 -9.88446e-07 4.63217e-06 45.7713 5.19764 2.77836 12.9945 -0.242716 -4.98039 89.9548 6.4615 -104.598 -5.34813 -1.25947e-06 -3.79883e-06 -60.305 -11.3777 -8.63974 -24.3289 0.000322201 -8.65921e-06 10.1845 -6.47785 -122.128 -22.2915 -0.000108084 -4.47941e-06 70.2206 5.53936 -8.21459 -2.19248 -6.46944 -1.22534e-07 -169.748 14.5838 -12.2404 39.0811 -6.73843e-06 -1.23785e-05 -0.163519 0.133015 50.776 40.9854 -6.48686e-06 -1.26872e-05 -9.92679 -26.4762 -70.5343 11.7543 -2.30145e-07 3.05095e-06 -1.5803 -2.49365 -23.5172 -2.19251 6.46944 -1.45247e-06 -161.689 15.0535 177.87 -39.0811 -0.00228153 -0.0401928 0.243736 -0.398252 27.4976 -40.9854 7.72618e-06 5.99936e-06 6.9002 -12.0364 -70.8908 -11.7543 -5.6619e-06 -5.58687e-06 -0.115149 0.0751487 -16.5729 
0 0 0 0 0 -0 -4.6659 88.7933 -6.40531 74.8703 -49.5594 -4.2041 15.7357 5.1072e-06 -5.51765e-07 156.795 84.046 -157.095 8.98455 -0.406207 -4.3199e-07 -3.07103 10.9682 -0.304857 16.3773 -1.3905e-06 -6.99897e-07 0.162109 1.92654 13.4144 6.45672 -1.25837e-06 -1.02172e-07 10.9777 -0.0349663 21.0311 12.9942 -0.242716 4.98039 -89.5035 -1.71831 -88.8805 5.34809 -7.22636e-06 -6.2814e-07 -47.1413 -46.7178 20.2336 24.3286 1.87007e-05 4.90208e-06 14.8122 25.8361 -31.249 22.2916 -9.88446e-07 4.63217e-06 45.7969 5.19587 2.8223 12.9945 -0.242716 -4.98039 89.956 6.4508 -104.608 -5.34813 -1.25947e-06 -3.79883e-06 -59.9944 -10.6744 -8.93355 -24.3289 0.000322201 -8.65921e-06 15.7138 -10.0972 -121.928 -22.2915 -0.000108084 -4.47941e-06 70.1102 5.58148 -10.2931 -2.19248 -6.46944 -1.22534e-07 -169.749 14.5275 -12.2053 39.0811 -6.73843e-06 -1.23785e-05 -0.164515 0.133867 50.7971 40.9854 -6.48686e-06 -1.26872e-05 -9.89558 -26.5694 -70.5721 11.7543 -2.30145e-07 3.05095e-06 -1.51712 -2.42112 -23.3821 -2.19251 6.46944 -1.45247e-06 -161.659 14.9621 177.905 -39.0811 -0.00228153 -0.0401928 0.246798 -0.404559 27.4786 -40.9854 7.72618e-06 5.99936e-06 6.94554 -12.0103 -70.8724 -11.7543 -5.6619e-06 -5.58687e-06 -0.12471 0.0815657 -16.573 
0 0 0 0 0 -0 -4.68657 88.7883 -6.44496 74.8352 -49.658 -4.25443 15.7357 5.1072e-06 -5.51765e-07 156.683 84.0315 -156.982 8.98455 -0.406207 -4.3199e-07 -3.03783 10.9856 -0.30611 16.3773 -1.3905e-06 -6.99897e-07 0.131075 1.87045 13.4791 6.45672 -1.25837e-06 -1.02172e-07 10.9949 -0.0629101 21.1158 12.9942 -0.242716 4.98039 -89.5054 -1.71576 -88.9145 5.34809 -7.22636e-06 -6.2814e-07 -47.1319 -46.7704 20.26 24.3286 1.87007e-05 4.90208e-06 14.7894 25.8549 -31.1908 22.2916 -9.88446e-07 4.63217e-06 45.756 5.19812 2.76564 12.9945 -0.242716 -4.98039 89.9496 6.43386 -104.55 -5.34813 -1.25947e-06 -3.79883e-06 -59.6297 -10.0916 -9.14662 -24.3289 0.000322201 -8.65921e-06 21.1745 -13.6352 -121.323 -22.2915 -0.000108084 -4.47941e-06 69.5979 5.61436 -12.2424 -2.19248 -6.46944 -1.22534e-07 -169.724 14.4922 -12.217 39.0811 -6.73843e-06 -1.23785e-05 -0.164857 0.134144 50.8097 40.9854 -6.48686e-06 -1.26872e-05 -9.91716 -26.6476 -70.5747 11.7543 -2.30145e-07 3.05095e-06 -1.52503 -2.42834 -23.3813 -2.19251 6.46944 -1.45247e-06 -161.651 15.068 177.918 -39.0811 -0.00228153 -0.0401928 0.247893 -0.407069 27.4585 -40.9854 7.72618e-06 5.99936e-06 7.0335 -11.8074 -70.8791 -11.7543 -5.6619e-06 -5.58687e-06 -0.114373 0.0748638 -16.573 
0 0 0 0 0 -0 -4.71932 88.7768 -6.48412 74.8076 -49.7267 -4.26276 15.7357 5.1072e-06 -5.51765e-07 156.486 84.0222 -156.793 8.98455 -0.406207 -4.3199e-07 -2.99144 10.987 -0.326093 16.3773 -1.3905e-06 -6.99897e-07 0.12585 1.82505 13.5731 6.45672 -1.25837e-06 -1.02172e-07 10.9591 -0.0645342 21.214 12.9942 -0.242716 4.98039 -89.5042 -1.72118 -88.9258 5.34809 -7.22636e-06 -6.2814e-07 -47.157 -46.8159 20.2299 24.3286 1.87007e-05 4.90208e-06 14.6982 25.733 -31.1385 22.2916 -9.88446e-07 4.63217e-06 45.7828 5.19808 2.76725 12.9945 -0.242716 -4.98039 89.949 6.41507 -104.544 -5.34813 -1.25947e-06 -3.79883e-06 -59.2537 -9.70754 -9.2519 -24.3289 0.000322201 -8.65921e-06 26.2166 -16.7457 -120.332 -22.2915 -0.000108084 -4.47941e-06 69.4619 5.64508 -14.5686 -2.19248 -6.46944 -1.22534e-07 -169.701 14.4737 -12.1877 39.0811 -6.73843e-06 -1.23785e-05 -0.165367 0.134356 50.8329 40.9854 -6.48686e-06 -1.26872e-05 -9.92724 -26.6871 -70.6277 11.7543 -2.30145e-07 3.05095e-06 -1.48655 -2.38838 -23.3318 -2.19251 6.46944 -1.45247e-06 -161.625 15.1339 177.954 -39.0811 -0.00228153 -0.0401928 0.252613 -0.416301 27.452 -40.9854 7.72618e-06 5.99936e-06 7.09108 -11.7278 -70.897 -11.7543 -5.6619e-06 -5.58687e-06 -0.121617 0.0796716 -16.5729 
0 0 0 0 0 -0 -4.74499 88.7714 -6.5249 74.7723 -49.7965 -4.31251 15.7357 5.1072e-06 -5.51765e-07 156.498 84.0084 -156.825 8.98455 -0.406207 -4.3199e-07 -2.98072 11.0153 -0.366363 16.3773 -1.3905e-06 -6.99897e-07 0.1022 1.76611 13.6709 6.45672 -1.25837e-06 -1.02172e-07 10.9783 -0.0954354 21.3438 12.9942 -0.242716 4.98039 -89.4994 -1.73819 -88.9299 5.34809 -7.22636e-06 -6.2814e-07 -47.2146 -46.8767 20.1469 24.3286 1.87007e-05 4.90208e-06 14.7861 25.8347 -31.2034 22.2916 -9.88446e-07 4.63217e-06 45.845 5.19652 2.80639 12.9945 -0.242716 -4.98039 89.9495 6.44291 -104.55 -5.34813 -1.25947e-06 -3.79883e-06 -58.8349 -9.50832 -9.2451 -24.3289 0.000322201 -8.65921e-06 30.6863 -19.3804 -119.213 -22.2915 -0.000108084 -4.47941e-06 69.3925 5.66425 -16.5761 -2.19248 -6.46944 -1.22534e-07 -169.654 14.4251 -12.1941 39.0811 -6.73843e-06 -1.23785e-05 -0.16568 0.134604 50.8382 40.9854 -6.48686e-06 -1.26872e-05 -9.89201 -26.7059 -70.6401 11.7543 -2.30145e-07 3.05095e-06 -1.47444 -2.37328 -23.2958 -2.19251 6.46944 -1.45247e-06 -161.594 15.1647 177.958 -39.0811 -0.00228153 -0.0401928 0.251341 -0.414339 27.433 -40.9854 7.72618e-06 5.99936e-06 7.152 -11.6296 -70.895 -11.7543 -5.6619e-06 -5.58687e-06 -0.117275 0.0769056 -16.5729 
0 0 0 0 0 -0 -4.78094 88.7555 -6.55365 74.7481 -49.8006 -4.31561 15.7357 5.1072e-06 -5.51765e-07 156.39 84.0047 -156.732 8.98455 -0.406207 -4.3199e-07 -2.95515 11.0144 -0.400498 16.3773 -1.3905e-06 -6.99897e-07 0.080137 1.71202 13.7251 6.45672 -1.25837e-06 -1.02172e-07 10.9909 -0.116725 21.4558 12.9942 -0.242716 4.98039 -89.5056 -1.71764 -88.9378 5.34809 -7.22636e-06 -6.2814e-07 -47.2301 -46.9057 20.0737 24.3286 1.87007e-05 4.90208e-06 14.8776 25.9136 -31.2951 22.2916 -9.88446e-07 4.63217e-06 45.8356 5.19757 2.78003 12.9945 -0.242716 -4.98039 89.9482 6.45878 -104.54 -5.34813 -1.25947e-06 -3.79883e-06 -58.4646 -9.47473 -9.18679 -24.3289 0.000322201 -8.65921e-06 34.4905 -21.4071 -117.979 -22.2915 -0.000108084 -4.47941e-06 69.7329 5.67691 -18.6687 -2.19248 -6.46944 -1.22534e-07 -169.611 14.4391 -12.1722 39.0811 -6.73843e-06 -1.23785e-05 -0.164823 0.133842 50.8558 40.9854 -6.48686e-06 -1.26872e-05 -9.97297 -26.6817 -70.7216 11.7543 -2.30145e-07 3.05095e-06 -1.463 -2.36372 -23.2966 -2.19251 6.46944 -1.45247e-06 -161.552 15.17 177.964 -39.0811 -0.00228153 -0.0401928 0.25286 -0.416594 27.4623 -40.9854 7.72618e-06 5.99936e-06 7.17939 -11.6289 -70.921 -11.7543 -5.6619e-06 -5.58687e-06 -0.126361 0.082904 -16.5728 
